HIERARCHY
ROOT Hips
{
  OFFSET -187.679 86.5976 -156.378
  CHANNELS 6 Xposition Yposition Zposition Zrotation Xrotation Yrotation
  JOINT LeftUpLeg
  {
    OFFSET 8.64259 1.95398 -2.38835
    CHANNELS 3 Zrotation Xrotation Yrotation
    JOINT LeftLeg
    {
      OFFSET 43.7702 0 0
      CHANNELS 3 Zrotation Xrotation Yrotation
      JOINT LeftFoot
      {
        OFFSET 40.6238 0 0
        CHANNELS 3 Zrotation Xrotation Yrotation
        JOINT LeftToeBase
        {
          OFFSET 12.7242 0 0
          CHANNELS 3 Zrotation Xrotation Yrotation
          End Site
          {
            OFFSET 0 0 0
          }
        }
      }
    }
  }
  JOINT RightUpLeg
  {
    OFFSET -8.2249 1.95398 -2.59336
    CHANNELS 3 Zrotation Xrotation Yrotation
    JOINT RightLeg
    {
      OFFSET 43.5653 0 0
      CHANNELS 3 Zrotation Xrotation Yrotation
      JOINT RightFoot
      {
        OFFSET 40.6238 0 0
        CHANNELS 3 Zrotation Xrotation Yrotation
        JOINT RightToeBase
        {
          OFFSET 12.7242 0 0
          CHANNELS 3 Zrotation Xrotation Yrotation
          End Site
          {
            OFFSET 0 0 0
          }
        }
      }
    }
  }
  JOINT Spine
  {
    OFFSET 0.165834 0.87714 6.61349
    CHANNELS 3 Zrotation Xrotation Yrotation
    JOINT Spine1
    {
      OFFSET 7.38963 1.71661e-005 0
      CHANNELS 3 Zrotation Xrotation Yrotation
      JOINT Spine2
      {
        OFFSET 11.9445 1.14441e-005 0
        CHANNELS 3 Zrotation Xrotation Yrotation
        JOINT Spine3
        {
          OFFSET 14.7254 4.19617e-005 0
          CHANNELS 3 Zrotation Xrotation Yrotation
          JOINT Spine4
          {
            OFFSET 10.9679 0 0
            CHANNELS 3 Zrotation Xrotation Yrotation
            JOINT RightShoulder
            {
              OFFSET 2.46616 -1.6653 3.69651
              CHANNELS 3 Zrotation Xrotation Yrotation
              JOINT RightArm
              {
                OFFSET 13.0012 0 0
                CHANNELS 3 Zrotation Xrotation Yrotation
                JOINT RightForeArm
                {
                  OFFSET 28.7848 1.52588e-005 0
                  CHANNELS 3 Zrotation Xrotation Yrotation
                  JOINT RightHand
                  {
                    OFFSET 26.5688 1.52588e-005 0
                    CHANNELS 3 Zrotation Xrotation Yrotation
                    End Site
                    {
                      OFFSET 0 0 0
                    }
                  }
                }
              }
            }
            JOINT LeftShoulder
            {
              OFFSET 2.38034 -1.29275 -3.7523
              CHANNELS 3 Zrotation Xrotation Yrotation
              JOINT LeftArm
              {
                OFFSET 16.3182 6.10352e-005 0
                CHANNELS 3 Zrotation Xrotation Yrotation
                JOINT LeftForeArm
                {
                  OFFSET 27.0901 0 0
                  CHANNELS 3 Zrotation Xrotation Yrotation
                  JOINT LeftHand
                  {
                    OFFSET 24.5451 1.52588e-005 0
                    CHANNELS 3 Zrotation Xrotation Yrotation
                    End Site
                    {
                      OFFSET 0 0 0
                    }
                  }
                }
              }
            }
            JOINT Neck
            {
              OFFSET 5.0226 -0.0266342 0
              CHANNELS 3 Zrotation Xrotation Yrotation
              JOINT Head
              {
                OFFSET 6.69363 2.86102e-005 0
                CHANNELS 3 Zrotation Xrotation Yrotation
                End Site
                {
                  OFFSET 0 0 0
                }
              }
            }
          }
        }
      }
    }
  }
}
MOTION
Frames:	7
Frame Time:	0.0416667
34.1907 101.821 21.7426 -147.7 -82.1257 -149.258 -174.42 -5.63533 89.2405 -15.5502 11.7309 7.35847 71.1546 5.0446 -1.97024 17.5501 -6.6166 4.74542 171.588 -4.28881 85.4953 -15.7636 5.42742 1.93419 66.5073 -2.92232 2.01941 27.0497 -1.27091 3.31142 0.213604 7.46034 -89.7186 11.9517 0.55739 0.50096 0.280816 0.578907 0.475936 -22.2541 0.381072 0.645313 -2.24144 0.381066 0.64531 90.1271 -46.253 -101.327 31.5263 -26.8956 -12.5256 -14.3209 -12.4614 -15.4343 -9.60075 0.032541 -5.65962 -88.1572 -44.2959 80.5867 -30.4529 27.1934 -8.97451 7.06649 -11.0898 -10.7563 -4.0341 -0.103115 -3.05877 8.37633 -1.39264 -3.86606 4.75007 -0.257907 4.30787 
34.2085 101.837 21.6654 -148.076 -82.3503 -149.649 -174.61 -5.56765 89.1128 -15.255 11.5641 7.56243 71.0943 4.86081 -2.52146 17.2127 -6.89096 4.99433 171.718 -4.16283 85.5953 -15.6476 5.47619 1.85369 66.2724 -2.82901 1.78932 26.6317 -1.22458 2.9081 0.206537 7.42782 -89.7578 12.0171 0.524946 0.425953 0.346206 0.543189 0.402426 -22.1889 0.372663 0.564029 -2.17622 0.372669 0.564033 90.4885 -45.8617 -100.846 31.65 -27.2044 -12.5592 -14.6209 -14.6017 -15.721 -10.4572 0.028313 -5.61199 -88.7894 -45.3302 79.8024 -29.3829 27.9106 -8.43749 6.42959 -13.0778 -10.9913 -2.17967 -0.0849998 -4.52932 7.65595 -1.50809 -3.10311 5.71932 -0.56264 3.65961 
34.2461 101.818 21.6187 -147.67 -82.4452 -149.269 -174.677 -5.40117 88.9784 -15.3472 11.9712 7.55995 70.9198 4.89087 -2.12852 16.5664 -6.97071 4.51705 171.703 -3.96735 85.5514 -15.7573 5.81152 1.90937 66.411 -2.84898 2.06646 26.5296 -1.27233 3.0023 0.221543 7.43895 -89.7769 11.995 0.545745 0.385635 0.324123 0.562184 0.361243 -22.2111 0.404616 0.531828 -2.19849 0.404614 0.531825 90.6789 -45.7251 -100.573 31.2898 -27.8967 -13.4144 -14.2331 -16.4049 -14.6193 -9.09405 0.150879 -7.26012 -88.9785 -45.7221 79.59 -29.0877 27.6976 -8.80273 6.4531 -13.12 -10.7569 -2.86474 -0.0816601 -4.82801 7.77839 -1.50646 -2.72748 5.92635 -0.634964 3.57707 
34.2721 101.827 21.5753 -146.644 -82.4231 -148.312 -174.675 -5.40807 88.9236 -15.1702 11.7203 7.45843 70.9548 4.85659 -2.35141 15.9712 -7.25253 4.51967 171.667 -3.85129 85.4678 -15.7801 5.54652 1.88235 66.5324 -2.86907 1.91808 26.2766 -1.31288 2.98261 0.229622 7.43894 -89.7368 11.9948 0.580762 0.461947 0.323926 0.600525 0.435933 -22.2112 0.415071 0.615123 -2.19854 0.415077 0.61513 90.4012 -46.1055 -100.926 31.1374 -27.7003 -13.5554 -13.9655 -15.8402 -14.0597 -9.9049 0.154111 -7.12996 -88.5695 -44.9651 80.072 -29.7833 27.1091 -9.01791 6.75691 -12.2668 -10.2174 -2.6311 -0.0793758 -4.70978 7.72007 -1.51635 -3.00925 5.86914 -0.593151 3.53428 
34.2785 101.826 21.5762 -146.568 -82.446 -148.153 -174.652 -5.2907 89.0382 -15.2864 11.6124 7.48715 70.9168 4.75826 -2.64862 16.2946 -6.87304 4.04208 171.72 -3.87214 85.5579 -15.6912 5.61639 1.89509 66.3586 -2.82418 2.02699 26.4489 -1.28133 2.98329 0.22609 7.43965 -89.7465 11.9933 0.569126 0.443748 0.322442 0.588103 0.41827 -22.2127 0.409453 0.594275 -2.20005 0.409445 0.594272 90.442 -46.0535 -100.873 31.1079 -27.3956 -13.6301 -14.2794 -16.72 -14.2395 -10.3183 0.111274 -6.53175 -88.4142 -44.9059 80.3054 -29.8272 26.9555 -9.16378 6.9142 -11.6816 -10.0654 -2.73484 -0.0773455 -5.13048 7.63257 -1.42827 -3.03059 5.56438 -0.500422 3.73153 
34.3017 101.819 21.6085 -146.926 -82.3815 -148.428 -174.582 -5.32335 89.0749 -15.4531 12.0722 7.46369 70.9293 4.9482 -1.89316 16.3518 -7.06669 4.50616 171.718 -4.02273 85.6001 -15.6 5.56261 1.90735 66.2517 -2.82233 1.98172 26.6671 -1.20552 2.86729 0.220428 7.46066 -89.7964 11.9516 0.534296 0.348376 0.280729 0.549122 0.324515 -22.2546 0.404894 0.492853 -2.24196 0.404894 0.492843 90.4825 -45.8913 -100.849 30.8235 -27.8031 -13.7158 -13.8722 -15.2572 -14.0216 -9.6264 0.15356 -7.18949 -88.6367 -45.556 80.0913 -28.9706 28.0704 -8.84455 6.33802 -13.2488 -10.8755 -2.20691 -0.075706 -4.80861 7.6231 -1.39344 -2.45161 5.49206 -0.61004 3.42263 
34.3502 101.831 21.6321 -147.326 -82.5627 -148.864 -174.591 -5.16654 89.0867 -15.4789 11.8745 7.41885 71.0215 4.86114 -2.40684 16.1802 -6.99179 4.17847 171.689 -3.92755 85.5632 -15.6015 5.65846 1.93467 66.3211 -2.83625 1.92767 26.4437 -1.27464 2.96004 0.230725 7.44677 -89.7547 11.9791 0.574475 0.426992 0.308257 0.592708 0.401291 -22.2269 0.419587 0.579903 -2.21429 0.419583 0.579899 90.5387 -46.2623 -100.667 30.7543 -27.7286 -13.7253 -13.58 -13.7605 -13.7654 -10.7416 0.143939 -6.84212 -88.4736 -44.7697 80.1824 -29.8302 26.8702 -9.25939 6.97803 -11.5396 -10.1196 -3.01979 -0.0742693 -5.24738 7.61156 -1.55732 -3.02641 5.27955 -0.65115 3.53596 
